<?xml version="1.0" standalone="no"?><!DOCTYPE svg PUBLIC "-//W3C//DTD SVG 1.1//EN" "http://www.w3.org/Graphics/SVG/1.1/DTD/svg11.dtd"><svg t="1567408654771" class="icon" viewBox="0 0 1024 1024" version="1.1" xmlns="http://www.w3.org/2000/svg" p-id="3667" xmlns:xlink="http://www.w3.org/1999/xlink" width="200" height="200"><defs><style type="text/css"></style></defs><path d="M511.995117 1009.670641c-67.171987 0-132.349224-13.160484-193.720624-39.121424-59.262317-25.066952-112.48565-60.948124-158.182451-106.644925-45.696801-45.693152-81.577973-98.916486-106.646141-158.182451-25.96094-61.3714-39.116559-126.543772-39.116559-193.726705 0-67.171987 13.155619-132.349224 39.116559-193.720624 25.068168-59.262317 60.94934-112.48565 106.646141-158.182451s98.920134-81.577973 158.182451-106.646141c61.3714-25.959724 126.548637-39.116559 193.720624-39.116559 67.173203 0 132.358954 13.156835 193.72184 39.116559 59.270831 25.068168 112.489299 60.954205 158.1861 106.646141 45.698018 45.696801 81.574324 98.920134 106.646141 158.182451 25.956075 61.3714 39.121424 126.548637 39.121424 193.730354 0 67.173203-13.165349 132.35044-39.121424 193.72184-25.071817 59.265966-60.948124 112.484434-106.646141 158.177586-45.696801 45.696801-98.915269 81.582839-158.17637 106.644925C644.350422 996.505292 579.16832 1009.670641 511.995117 1009.670641L511.995117 1009.670641 511.995117 1009.670641zM511.995117 48.415256c-62.582846 0-123.293789 12.257981-180.440941 36.427296C276.349472 108.18964 226.775071 141.61508 184.194458 184.194477c-42.580613 42.575747-76.004837 92.155013-99.351925 147.359717-24.169314 57.147152-36.428512 117.858095-36.428512 180.440941 0 62.587711 12.259198 123.303519 36.428512 180.447023 23.347088 55.199838 56.776177 104.777888 99.351925 147.353635 42.580613 42.580613 92.155013 76.009702 147.359717 99.358006 57.147152 24.17418 117.858095 36.427296 180.440941 36.427296 62.592576 0 123.303519-12.253116 180.447023-36.427296 55.198622-23.351953 104.777888-56.777394 147.353635-99.358006 42.585478-42.575747 76.009702-92.148932 99.358006-147.353635 24.17418-57.143503 36.427296-117.854447 36.427296-180.447023 0-62.587711-12.253116-123.298654-36.427296-180.440941-23.35317-55.204704-56.772528-104.783969-99.358006-147.359717-42.575747-42.579396-92.155013-76.009702-147.353635-99.351925C635.298636 60.673238 574.587693 48.415256 511.995117 48.415256L511.995117 48.415256 511.995117 48.415256zM682.839365 518.6666c-10.433515-3.132001-17.589072-5.260545-12.115673-18.972018 11.831056-29.771642 13.060747-55.45648 0.223801-73.77169-24.056197-34.380244-89.884161-32.518072-165.328278-0.936559 0-0.03284-23.693737 10.3727-17.641374-8.424169 11.607255-37.305472 9.859416-68.559798-8.200368-86.600121-40.941026-40.960487-149.791122 1.54958-243.129606 94.862521-69.903821 69.919633-110.493333 144.014862-110.493333 208.080391 0 122.551839 157.15102 197.060614 310.895153 197.060614 201.551234 0 335.621537-117.097901 335.621537-210.07514C772.666359 563.722406 725.357945 531.846545 682.839365 518.6666L682.839365 518.6666 682.839365 518.6666zM437.463232 786.040932c-122.680768 12.110808-228.586176-43.350537-236.554229-123.897079-7.966837-80.533162 85.056623-155.645227 207.724011-167.77063 122.695364-12.130269 228.599556 43.321346 236.557878 123.836264C653.139485 698.790084 560.163462 773.900932 437.463232 786.040932L437.463232 786.040932 437.463232 786.040932zM816.685867 294.394679c-48.675547-53.959201-120.471948-74.536749-186.731701-60.444571l-0.029191 0c-15.326734 3.282823-25.104657 18.362646-21.826699 33.66627 3.268227 15.323085 18.349267 25.115604 33.685731 21.841295 47.141779-10.010239 98.155075 4.628063 132.759121 42.966183 34.565124 38.332039 43.957477 90.615164 29.147675 136.444543l0.00973 0.00973c-4.817808 14.929 3.344855 30.89673 18.2921 35.729133 14.886429 4.812942 30.888216-3.335125 35.724268-18.230068l0.004865-0.114333C878.493923 421.793517 865.371144 348.301579 816.685867 294.394679M741.939912 361.847633c-23.685223-26.283263-58.667541-36.265526-90.956947-29.400668-13.199406 2.813327-21.60898 15.802311-18.777408 29.011448 2.818192 13.150754 15.797446 21.602898 28.964012 18.738486l0 0.027975c15.78285-3.335125 32.897561 1.530119 44.475625 14.353685 11.597525 12.852757 14.71493 30.360337 9.740218 45.725993l0.02311 0c-4.13789 12.818701 2.88509 26.606801 15.71717 30.764152 12.833297 4.109915 26.616532-2.893604 30.754422-15.745145C772.024146 423.922061 765.677436 388.122382 741.939912 361.847633M449.716349 556.357643c-58.378059-15.189291-124.358061 13.907299-149.715711 65.343872-25.822281 52.461923-0.855067 110.697673 58.126283 129.741453C419.223434 771.141123 491.237554 740.952286 516.276531 684.322066 540.967643 628.965323 510.13781 571.975075 449.716349 556.357643L449.716349 556.357643 449.716349 556.357643zM405.144635 690.331858c-11.867546 18.934312-37.282362 27.229553-56.414933 18.492791-18.86255-8.590804-24.435686-30.574408-12.566924-49.038007 11.720372-18.386972 36.280122-26.569096 55.27525-18.605908C410.661821 649.372588 416.800542 671.218748 405.144635 690.331858L405.144635 690.331858 405.144635 690.331858zM444.238084 640.163898c-4.294794 7.331922-13.783235 10.861657-21.213679 7.806283-7.302731-3.006721-9.593044-11.211954-5.445424-18.419813 4.276549-7.175018 13.394016-10.676777 20.677286-7.783174C445.668466 624.47592 448.328538 632.776025 444.238084 640.163898L444.238084 640.163898 444.238084 640.163898zM444.238084 640.163898" p-id="3668" fill="#ffffff"></path></svg>