<?xml version="1.0" standalone="no"?><!DOCTYPE svg PUBLIC "-//W3C//DTD SVG 1.1//EN" "http://www.w3.org/Graphics/SVG/1.1/DTD/svg11.dtd"><svg t="1567405270518" class="icon" viewBox="0 0 1024 1024" version="1.1" xmlns="http://www.w3.org/2000/svg" p-id="2157" xmlns:xlink="http://www.w3.org/1999/xlink" width="200" height="200"><defs><style type="text/css"></style></defs><path d="M328.106667 0h367.786666C810.666667 0 853.333333 11.946667 893.013333 34.133333a232.533333 232.533333 0 0 1 96.853334 96.853334c22.186667 39.68 34.133333 82.346667 34.133333 197.12v367.786666c0 113.92-11.946667 155.306667-34.133333 197.12a232.533333 232.533333 0 0 1-96.853334 96.853334c-42.666667 22.186667-83.2 34.133333-197.12 34.133333H328.106667C213.333333 1024 170.666667 1012.053333 130.986667 989.866667A232.533333 232.533333 0 0 1 34.133333 893.013333C11.946667 853.333333 0 810.666667 0 695.893333V328.106667C0 213.333333 11.946667 170.666667 34.133333 130.986667A232.533333 232.533333 0 0 1 130.986667 34.133333C170.666667 11.946667 213.333333 0 328.106667 0z" fill="#E82202" p-id="2158"></path><path d="M663.466667 131.84a178.346667 178.346667 0 0 1 66.986666 32.426667 49.92 49.92 0 0 1 17.066667 20.906666 42.666667 42.666667 0 0 1-3.84 39.68 42.666667 42.666667 0 0 1-58.453333 13.226667c-4.693333-2.986667-8.106667-7.253333-12.8-9.813333a77.226667 77.226667 0 0 0-42.666667-14.08 42.666667 42.666667 0 0 0-27.306667 14.08 30.293333 30.293333 0 0 0-8.106666 27.306666l15.786666 59.306667a228.693333 228.693333 0 0 1 107.52 31.573333 306.773333 306.773333 0 0 1 82.346667 73.813334 256 256 0 0 1 42.666667 85.333333 283.733333 283.733333 0 0 1 10.666666 98.56 313.173333 313.173333 0 0 1-17.066666 81.92 320.853333 320.853333 0 0 1-128 157.013333 341.333333 341.333333 0 0 1-141.226667 49.493334 353.28 353.28 0 0 1-103.68 0 341.333333 341.333333 0 0 1-186.88-98.986667 366.933333 366.933333 0 0 1-96.853333-338.346667 360.106667 360.106667 0 0 1 215.893333-256 57.173333 57.173333 0 0 1 47.786667 2.56 42.666667 42.666667 0 0 1 17.493333 40.106667 42.666667 42.666667 0 0 1-27.306667 34.986667 274.773333 274.773333 0 0 0-174.506666 220.16 279.893333 279.893333 0 0 0 15.36 135.68 275.626667 275.626667 0 0 0 128 147.626666 249.6 249.6 0 0 0 116.48 28.16 290.986667 290.986667 0 0 0 97.706666-17.493333A231.68 231.68 0 0 0 742.826667 682.666667a189.44 189.44 0 0 0 16.213333-38.4 213.333333 213.333333 0 0 0 0-118.613334 180.053333 180.053333 0 0 0-54.186667-83.2 237.226667 237.226667 0 0 0-35.84-26.026666 136.96 136.96 0 0 0-35.84-13.653334c8.533333 34.133333 17.92 68.266667 26.88 102.826667l4.266667 24.746667a145.493333 145.493333 0 0 1-117.333333 147.626666 139.52 139.52 0 0 1-102.4-19.2A154.026667 154.026667 0 0 1 384 580.266667a186.453333 186.453333 0 0 1-10.24-55.893334 192.853333 192.853333 0 0 1 32.426667-117.76 213.333333 213.333333 0 0 1 118.613333-81.92l-10.24-39.68a117.76 117.76 0 0 1 6.4-85.333333 123.306667 123.306667 0 0 1 30.72-38.826667A125.44 125.44 0 0 1 597.333333 132.693333a128 128 0 0 1 66.133334-0.853333z" fill="#FFFFFF" p-id="2159"></path><path d="M487.253333 443.306667a99.84 99.84 0 0 0-25.173333 47.786666 128 128 0 0 0 0 49.493334 73.813333 73.813333 0 0 0 28.16 46.08 54.186667 54.186667 0 0 0 42.666667 8.106666 59.733333 59.733333 0 0 0 48.213333-55.466666 153.6 153.6 0 0 0-3.84-19.626667l-29.44-111.36a136.106667 136.106667 0 0 0-60.586667 34.986667z" fill="#E82202" p-id="2160"></path></svg>