<?xml version="1.0" standalone="no"?><!DOCTYPE svg PUBLIC "-//W3C//DTD SVG 1.1//EN" "http://www.w3.org/Graphics/SVG/1.1/DTD/svg11.dtd"><svg t="1567409337996" class="icon" viewBox="0 0 1024 1024" version="1.1" xmlns="http://www.w3.org/2000/svg" p-id="6713" xmlns:xlink="http://www.w3.org/1999/xlink" width="200" height="200"><defs><style type="text/css"></style></defs><path d="M512 0C229.226667 0 0 229.226667 0 512s229.226667 512 512 512 512-229.226667 512-512S794.773333 0 512 0zM512 1002.645333C241.024 1002.645333 21.344 782.976 21.344 512S241.024 21.354667 512 21.354667 1002.645333 241.024 1002.645333 512 782.976 1002.645333 512 1002.645333z" p-id="6714" fill="#ffffff"></path><path d="M632.810667 402.218667c7.829333 0 15.573333 0.576 23.264 1.429333-20.906667-97.344-124.981333-169.674667-243.786667-169.674667C279.466667 233.973333 170.666667 324.501333 170.666667 439.456c0 66.357333 36.202667 120.842667 96.682667 163.104l-24.16 72.682667 84.469333-42.368c30.218667 5.994667 54.464 12.138667 84.629333 12.138667 7.584 0 15.104-0.373333 22.56-0.96-4.725333-16.16-7.456-33.077333-7.456-50.624C427.381333 487.872 518.026667 402.218667 632.810667 402.218667L632.810667 402.218667zM502.890667 336.704c18.186667 0 30.24 11.968 30.24 30.144 0 18.112-12.053333 30.250667-30.24 30.250667-18.112 0-36.277333-12.138667-36.277333-30.250667C466.613333 348.672 484.778667 336.704 502.890667 336.704L502.890667 336.704zM333.792 397.098667c-18.101333 0-36.384-12.128-36.384-30.24 0-18.176 18.272-30.144 36.384-30.144 18.112 0 30.154667 11.968 30.154667 30.144C363.946667 384.970667 351.904 397.098667 333.792 397.098667L333.792 397.098667zM853.333333 590.528c0-96.597333-96.672-175.338667-205.226667-175.338667-114.965333 0-205.514667 78.741333-205.514667 175.338667 0 96.757333 90.538667 175.338667 205.514667 175.338667 24.053333 0 48.32-6.058667 72.490667-12.128l66.282667 36.288-18.176-60.373333C817.194667 693.269333 853.333333 645.024 853.333333 590.528L853.333333 590.528zM581.472 560.298667c-12.032 0-24.170667-11.968-24.170667-24.181333 0-12.042667 12.138667-24.170667 24.170667-24.170667 18.272 0 30.250667 12.128 30.250667 24.170667C611.722667 548.330667 599.744 560.298667 581.472 560.298667L581.472 560.298667zM714.378667 560.298667c-11.946667 0-24-11.968-24-24.181333 0-12.042667 12.053333-24.170667 24-24.170667 18.101333 0 30.24 12.128 30.24 24.170667C744.618667 548.330667 732.48 560.298667 714.378667 560.298667L714.378667 560.298667z" p-id="6715" fill="#ffffff"></path></svg>