<?xml version="1.0" standalone="no"?><!DOCTYPE svg PUBLIC "-//W3C//DTD SVG 1.1//EN" "http://www.w3.org/Graphics/SVG/1.1/DTD/svg11.dtd"><svg t="1567409393995" class="icon" viewBox="0 0 1024 1024" version="1.1" xmlns="http://www.w3.org/2000/svg" p-id="7534" xmlns:xlink="http://www.w3.org/1999/xlink" width="200" height="200"><defs><style type="text/css"></style></defs><path d="M739.003099 201.563089c-8.913646-25.278799-6.921952-53.702269-6.921952-53.702269-6.712784-79.604493-110.75736-57.582603-110.75736-57.582603 59.576338 24.12582 39.963459 49.085254 17.092651 64.402522-10.068665-3.146713-20.454655-6.082217-31.04165-8.706518C432.216947 103.601751 251.175854 189.081332 217.511943 329.941634c-29.576449 123.769691 50.971853 242.081611 189.634353 297.777615 3.673206 14.995863-0.311202 32.088514-34.930147 35.241349 0 0-41.530694-1.473364-63.455651 15.730504 0 0-36.290253 20.559749-43.523408 78.766798 0 0-3.673206 31.464069 18.139515 33.672074 0 0 21.820883 5.137387 26.223629-23.495253 0 0 2.728376-32.520116 18.877217-41.744964 0 0 34.928106-16.157004 46.572169 13.211297 0 0 7.657614 18.356846-10.491084 52.02892 0 0-7.866783 15.41318-36.081085 41.218471 0 0-26.953168 21.077059 3.673206 47.934316 0 0 27.693931 29.159132 61.151735-12.692967 0 0 26.534831-34.08735 36.394328-82.12472 0 0 8.706518-43.949908 36.392287-38.498258 0 0 35.666829 0.424459 29.896835 41.433762 0 0-2.208005 37.339158-34.192445 68.177761l-23.286084 23.808496c0 0-33.456783 30.415165 2.199842 57.582603 0 0 32.727244 26.430757 66.289121-28.528565 0 0 17.726279-27.9031 27.687809-79.405527 0 0 16.779408-70.058239 63.353618-42.265335 0 0 40.065493 23.814618 0 70.377604l-17.517111 22.341254c0 0-17.197746 27.063364 8.706518 43.635645 0 0 33.14354 22.550423 58.94271-31.047772 0 0 31.151847-48.774052 22.550423-110.445137 0 0-5.137387-44.684549-50.973894-61.569052 0 0-59.359006-28.630599-27.583735-65.024926 128.907078-12.27463 240.184808-90.103739 265.785012-197.396041C882.066304 357.637606 832.98105 262.923993 739.003099 201.563089L739.003099 201.563089zM430.64155 248.344427c3.039578-1.991694 75.410916-47.932275 150.408596-25.805291 45.307974 13.323534 81.069694 48.148586 106.450526 103.523185 3.466078 7.552519 0.217331 16.57228-7.338249 20.036318-2.095768 0.94483-4.191536 1.360106-6.297507 1.360106-5.657757 0-11.115529-3.248747-13.626573-8.810592-21.501519-46.987445-50.86982-76.250652-87.374343-87.054979-61.778221-18.244609-125.443041 21.814761-126.073608 22.239221-7.026027 4.400705-16.252916 2.40697-20.765857-4.617016C421.621789 262.188332 423.614503 252.848185 430.64155 248.344427L430.64155 248.344427zM626.35812 556.708017c-171.174453 24.12582-265.04731-86.424412-265.04731-86.424412-53.909397-52.75846-30.623313-106.987222-30.623313-106.987222 18.035441-38.388062 102.683449-9.540132 102.683449-9.540132 128.898915 39.539 213.335714 47.61291 213.335714 47.61291 46.460952 3.77728 67.122735 40.491993 71.324474 60.83339C729.145643 539.926568 626.35812 556.708017 626.35812 556.708017L626.35812 556.708017zM626.35812 556.708017" p-id="7535" fill="#ffffff"></path><path d="M511.996937 1024c-69.021578 0-135.994324-13.52556-199.056126-40.198136-60.894611-25.760397-115.583544-62.627139-162.539359-109.582954-46.954794-46.950713-83.823578-101.639646-109.581934-162.539359-26.674617-63.05568-40.194055-130.027406-40.194055-199.056126 0-69.021578 13.519438-135.994324 40.194055-199.056126 25.758356-60.89359 62.627139-115.583544 109.581934-162.539359 46.956835-46.954794 101.645768-83.823578 162.539359-109.581934 63.061802-26.674617 130.034548-40.194055 199.056126-40.194055 69.022599 0 136.001467 13.519438 199.056126 40.194055 60.899712 25.758356 115.583544 62.632241 162.539359 109.581934 46.956835 46.956835 83.823578 101.645768 109.583974 162.539359 26.672576 63.061802 40.198136 130.034548 40.198136 199.061228 0 69.022599-13.52556 135.994324-40.198136 199.056126-25.760397 60.899712-62.627139 115.583544-109.583974 162.534257-46.956835 46.956835-101.639646 83.828679-162.534257 109.582954C647.992282 1010.47444 581.019536 1024 511.996937 1024L511.996937 1024zM511.996937 36.275969c-64.309672 0-126.69091 12.596035-185.413228 37.429968-56.721441 23.993177-107.660643 58.336631-151.413626 102.090634-43.754004 43.745841-78.097458 94.692186-102.090634 151.413626-24.834953 58.722317-37.429968 121.103556-37.429968 185.413228s12.596035 126.697032 37.429968 185.413228c23.993177 56.721441 58.342753 107.666765 102.090634 151.414647 43.751963 43.751963 94.692186 78.101539 151.413626 102.090634 58.722317 24.840055 121.103556 37.429968 185.413228 37.429968 64.315794 0 126.697032-12.589913 185.413228-37.429968 56.721441-23.993177 107.666765-58.338671 151.414647-102.090634 43.754004-43.747882 78.101539-94.688104 102.090634-151.414647 24.840055-58.716195 37.429968-121.098454 37.429968-185.413228 0-64.313753-12.589913-126.697032-37.429968-185.413228-23.993177-56.721441-58.336631-107.666765-102.090634-151.413626-43.747882-43.754004-94.693206-78.10358-151.414647-102.090634C638.693969 48.870983 576.31171 36.275969 511.996937 36.275969L511.996937 36.275969zM511.996937 36.275969" p-id="7536" fill="#ffffff"></path></svg>