<?xml version="1.0" standalone="no"?><!DOCTYPE svg PUBLIC "-//W3C//DTD SVG 1.1//EN" "http://www.w3.org/Graphics/SVG/1.1/DTD/svg11.dtd"><svg t="1567416756208" class="icon" viewBox="0 0 1024 1024" version="1.1" xmlns="http://www.w3.org/2000/svg" p-id="2803" xmlns:xlink="http://www.w3.org/1999/xlink" width="200" height="200"><defs><style type="text/css"></style></defs><path d="M627.086668 5.114963c28.132297-7.672445 58.822075-7.672445 86.954372 0 33.24726 7.672445 63.937038 23.017334 89.511853 43.477186 10.229926 7.672445 17.902371 15.344889 23.017334 28.132297 7.672445 17.902371 5.114963 38.362223-5.114963 53.707112-7.672445 12.787408-23.017334 23.017334-40.919704 25.574815-12.787408 2.557482-25.574815 0-38.362223-7.672445-5.114963-2.557482-10.229926-10.229926-17.902371-12.787407-17.902371-10.229926-35.804741-20.459852-56.264593-17.902371-15.344889 0-28.132297 7.672445-35.804742 17.902371-10.229926 10.229926-12.787408 23.017334-10.229926 35.804741 7.672445 25.574815 12.787408 53.707112 20.459853 79.281927 51.14963 2.557482 99.741779 15.344889 143.218965 40.919704 40.919704 25.574815 79.281927 58.822075 109.971705 97.184298 25.574815 33.24726 46.034667 71.609483 56.264593 112.529187 12.787408 43.477186 17.902371 89.511853 12.787408 132.989039-2.557482 38.362223-10.229926 74.166964-23.017334 109.971705-33.24726 84.39689-92.069335 161.121336-171.351261 209.713485-56.264593 35.804741-122.759113 58.822075-189.253633 66.49452-46.034667 5.114963-92.069335 5.114963-138.104002-2.557482-94.626816-15.344889-181.581188-61.379556-250.633189-130.431558-66.49452-66.49452-112.529187-153.448891-132.989039-245.518225-7.672445-69.052001-7.672445-138.104002 7.672445-207.156004 17.902371-81.839409 61.379556-161.121336 117.644149-222.500892 48.592149-51.14963 107.414224-89.511853 171.351262-117.64415 7.672445-2.557482 12.787408-5.114963 20.459852-7.672444 15.344889-2.557482 30.689778 0 43.477186 10.229926 17.902371 12.787408 25.574815 33.24726 23.017334 53.707112-2.557482 20.459852-17.902371 38.362223-35.804741 46.034667-63.937038 25.574815-122.759113 69.052001-163.678818 122.759113C205.102218 373.392302 179.527402 432.214377 171.854958 493.593933c-7.672445 61.379556 0 122.759113 20.459852 181.581188 30.689778 84.39689 94.626816 156.006373 173.908743 196.926077 48.592149 25.574815 102.299261 38.362223 156.006373 38.362223 43.477186 0 89.511853-7.672445 130.431558-23.017334 35.804741-12.787408 71.609483-33.24726 99.741779-58.822074 28.132297-23.017334 51.14963-53.707112 66.494519-84.396891 7.672445-15.344889 17.902371-33.24726 20.459853-51.14963 15.344889-51.14963 17.902371-107.414224 2.557481-158.563854-12.787408-43.477186-38.362223-81.839409-71.609482-109.971706-15.344889-12.787408-30.689778-25.574815-48.592149-35.804741-15.344889-7.672445-30.689778-15.344889-48.592149-17.902371 12.787408 46.034667 23.017334 92.069335 35.804741 135.546521 2.557482 10.229926 5.114963 23.017334 5.114963 33.24726 2.557482 46.034667-15.344889 94.626816-46.034667 130.431557-28.132297 33.24726-69.052001 58.822075-112.529187 66.49452-46.034667 10.229926-97.184298 0-138.104002-25.574815-38.362223-25.574815-66.49452-63.937038-81.839409-104.856743-7.672445-23.017334-12.787408-48.592149-12.787407-74.166964-2.557482-56.264593 12.787408-109.971705 43.477185-156.006373 35.804741-53.707112 94.626816-92.069335 158.563855-109.971705-5.114963-17.902371-10.229926-35.804741-12.787408-53.707112-12.787408-38.362223-10.229926-81.839409 7.672445-115.086668 10.229926-20.459852 23.017334-38.362223 40.919704-51.149631C583.609483 25.574815 604.069335 12.787408 627.086668 5.114963m-148.333928 414.312006c-17.902371 17.902371-28.132297 40.919704-33.24726 63.937038-5.114963 20.459852-5.114963 43.477186 0 66.49452 5.114963 23.017334 17.902371 46.034667 38.362223 61.379556 15.344889 10.229926 35.804741 15.344889 56.264594 10.229926 35.804741-5.114963 63.937038-38.362223 63.937038-74.166964-2.557482-7.672445-2.557482-17.902371-5.114963-25.574815-12.787408-48.592149-25.574815-99.741779-38.362223-148.333928-30.689778 7.672445-58.822075 23.017334-81.839409 46.034667z" fill="#ffffff" p-id="2804"></path></svg>